<?xml version="1.0" encoding="utf-8"?>
<!-- Generator: Adobe Illustrator 16.0.0, SVG Export Plug-In . SVG Version: 6.00 Build 0)  -->
<!DOCTYPE svg PUBLIC "-//W3C//DTD SVG 1.1//EN" "http://www.w3.org/Graphics/SVG/1.1/DTD/svg11.dtd">
<svg version="1.1" id="Layer_1" xmlns:svg="http://www.w3.org/2000/svg"
	 xmlns="http://www.w3.org/2000/svg" xmlns:xlink="http://www.w3.org/1999/xlink" x="0px" y="0px" width="10px" height="10px"
	 viewBox="742.8 0 434.4 434.4" enable-background="new 742.8 0 434.4 434.4" xml:space="preserve">
<g transform="translate(0,-952.36216)">
	<g transform="translate(0,-4e-5)">
		<path fill="#dbd7d7" d="M960,952.362c-119.931,0-217.2,97.27-217.2,217.2s97.27,217.2,217.2,217.2s217.201-97.27,217.201-217.2
			S1079.931,952.362,960,952.362z M960,956.706c117.583,0,212.857,95.273,212.857,212.856S1077.583,1382.418,960,1382.418
			s-212.856-95.272-212.856-212.855S842.417,956.706,960,956.706z M960,1030.579c-4.772,0-8.688,3.916-8.688,8.688
			c0,4.02,2.789,7.398,6.517,8.374v2.486h4.344v-2.486c1.453-0.38,2.762-1.117,3.818-2.129l1.841,1.128l2.282-3.699l-1.85-1.137
			c0.252-0.809,0.425-1.648,0.425-2.537C968.688,1034.495,964.772,1030.579,960,1030.579z M960,1034.924
			c2.425,0,4.344,1.919,4.344,4.344s-1.919,4.344-4.344,4.344s-4.344-1.919-4.344-4.344S957.575,1034.924,960,1034.924z
			 M951.405,1042.008l-3.699,2.274l2.282,3.699l3.699-2.274L951.405,1042.008z M973.813,1045.215l-2.282,3.699l3.699,2.282
			l2.282-3.699L973.813,1045.215z M944.007,1046.564l-3.699,2.273l2.282,3.699l3.699-2.273L944.007,1046.564z M981.211,1049.771
			l-2.282,3.699l3.699,2.274l2.282-3.699L981.211,1049.771z M936.608,1051.112l-3.699,2.282l2.274,3.699l3.699-2.282
			L936.608,1051.112z M988.609,1054.328l-2.282,3.699l3.699,2.274l2.282-3.699L988.609,1054.328z M957.828,1054.472v4.344h4.344
			v-4.344H957.828z M929.21,1055.668l-3.699,2.274l2.274,3.699l3.699-2.274L929.21,1055.668z M996.008,1058.875l-2.274,3.699
			l3.699,2.282l2.274-3.699L996.008,1058.875z M921.812,1060.224l-3.699,2.274l2.274,3.699l3.699-2.274L921.812,1060.224z
			 M957.828,1063.16v4.344h4.344v-4.344H957.828z M1003.406,1063.431l-2.274,3.699l3.699,2.274l2.274-3.699L1003.406,1063.431z
			 M914.413,1064.772l-3.699,2.282l2.274,3.699l3.699-2.282L914.413,1064.772z M1010.805,1067.987l-2.274,3.699l3.699,2.274
			l2.274-3.699L1010.805,1067.987z M907.015,1069.328l-3.699,2.273l2.274,3.699l3.699-2.273L907.015,1069.328z M957.828,1071.848
			v4.344h4.344v-4.344H957.828z M1018.203,1072.535l-2.274,3.699l3.699,2.282l2.274-3.699L1018.203,1072.535z M899.616,1073.884
			l-3.698,2.274l2.273,3.699l3.699-2.274L899.616,1073.884z M1025.602,1077.091l-2.274,3.699l3.699,2.266l2.274-3.691
			L1025.602,1077.091z M892.219,1078.432l-3.708,2.282l2.282,3.699l3.699-2.282L892.219,1078.432z M957.828,1080.536v4.344h4.344
			v-4.344H957.828z M1033,1081.647l-2.274,3.69l3.699,2.282l2.273-3.699L1033,1081.647z M884.812,1082.979l-3.699,2.265l2.282,3.716
			l3.699-2.283L884.812,1082.979z M1040.397,1086.186l-2.273,3.69l3.699,2.282l2.282-3.69L1040.397,1086.186z M877.413,1087.527
			l-3.699,2.282l2.282,3.691l3.699-2.266L877.413,1087.527z M957.828,1089.224v2.282c-14.556,1.116-26.064,13.29-26.064,28.126
			c0,15.569,12.668,28.236,28.236,28.236s28.236-12.667,28.236-28.236c0-14.836-11.509-27.01-26.064-28.126v-2.282H957.828z
			 M960,1147.868h-23.696c-8.934,0-16.585,5.364-19.998,13.032h-14.949h-18.954c-9.918,0-17.971,8.045-17.971,17.961v38.96
			l-3.113,1.858l2.223,3.725l0.891-0.526v3.182h49.956v8.688h19.549h4.344h19.548v4.345h4.344v-4.345h43.44v-8.688h49.956v-2.478
			l1.73,0.925l2.045-3.834l-3.775-2.011v-39.8c0-9.917-8.053-17.961-17.97-17.961h-18.955h-14.949
			c-3.413-7.668-11.064-13.032-19.997-13.032H960z M1018.644,1160.9c10.771,0,19.549-8.778,19.549-19.548
			c0-10.77-8.778-19.548-19.549-19.548c-10.77,0-19.548,8.778-19.548,19.548C999.096,1152.122,1007.874,1160.9,1018.644,1160.9z
			 M901.356,1160.9c10.77,0,19.548-8.778,19.548-19.548c0-10.77-8.778-19.548-19.548-19.548c-10.771,0-19.549,8.778-19.549,19.548
			C881.808,1152.122,890.586,1160.9,901.356,1160.9z M1047.805,1090.743l-2.282,3.699l3.699,2.274l2.282-3.708L1047.805,1090.743z
			 M870.015,1092.083l-3.699,2.282l2.282,3.699l3.699-2.282L870.015,1092.083z M1055.203,1095.29l-2.282,3.708l3.699,2.266
			l2.282-3.691L1055.203,1095.29z M960,1095.74c13.221,0,23.892,10.671,23.892,23.892c0,13.221-10.671,23.892-23.892,23.892
			s-23.892-10.671-23.892-23.892C936.108,1106.411,946.779,1095.74,960,1095.74z M862.616,1096.631l-3.699,2.282l2.274,3.708
			l3.698-2.282L862.616,1096.631z M1062.602,1099.846l-2.282,3.699l3.699,2.282l2.282-3.699L1062.602,1099.846z M847.056,1100.084
			c-4.772,0-8.688,3.916-8.688,8.688c0,4.019,2.788,7.398,6.516,8.374v2.477h4.344v-2.477c1.621-0.426,3.055-1.299,4.166-2.495
			l2.037,1.103l2.062-3.827l-2.028-1.094c0.166-0.666,0.28-1.347,0.28-2.062c0-0.889-0.173-1.737-0.425-2.545l2.173-1.332
			l-2.274-3.699l-2.163,1.332C851.49,1101.023,849.38,1100.084,847.056,1100.084z M1072.944,1100.084
			c-4.772,0-8.688,3.916-8.688,8.688c0,0.714,0.114,1.396,0.28,2.062l-2.062,1.111l2.062,3.827l2.07-1.12
			c1.111,1.195,2.545,2.07,4.166,2.495v2.35h4.344v-2.35c3.728-0.976,6.516-4.355,6.516-8.374
			C1081.632,1103.999,1077.717,1100.084,1072.944,1100.084z M847.056,1104.428c2.426,0,4.345,1.919,4.345,4.344
			c0,2.425-1.919,4.344-4.345,4.344c-2.425,0-4.344-1.919-4.344-4.344C842.712,1106.347,844.631,1104.428,847.056,1104.428z
			 M1072.944,1104.428c2.425,0,4.344,1.919,4.344,4.344c0,2.425-1.919,4.344-4.344,4.344s-4.344-1.919-4.344-4.344
			C1068.601,1106.347,1070.52,1104.428,1072.944,1104.428z M861.318,1113.99l-2.062,3.826l3.826,2.053l2.062-3.818L861.318,1113.99z
			 M1058.647,1113.99l-3.817,2.062l2.053,3.818l3.827-2.053L1058.647,1113.99z M868.963,1118.087l-2.054,3.827l3.827,2.062
			l2.053-3.826L868.963,1118.087z M1051.003,1118.087l-3.826,2.062l2.063,3.826l3.817-2.062L1051.003,1118.087z M876.615,1122.194
			l-2.062,3.827l2.698,1.442l2.054-3.818L876.615,1122.194z M1043.351,1122.194l-2.503,1.349l2.054,3.827l2.511-1.349
			L1043.351,1122.194z M1070.772,1123.781v4.344h4.344v-4.344H1070.772z M844.884,1123.916v4.344h4.344v-4.344H844.884z
			 M901.356,1126.097c8.422,0,15.203,6.782,15.203,15.204c0,8.423-6.781,15.204-15.203,15.204c-8.423,0-15.204-6.781-15.204-15.204
			C886.152,1132.878,892.934,1126.097,901.356,1126.097z M1018.644,1126.097c8.423,0,15.204,6.782,15.204,15.204
			c0,8.423-6.781,15.204-15.204,15.204c-8.422,0-15.203-6.781-15.203-15.204C1003.44,1132.878,1010.222,1126.097,1018.644,1126.097z
			 M1070.772,1132.469v4.344h4.344v-4.344H1070.772z M844.884,1132.596v4.344h4.344v-4.344H844.884z M1070.772,1141.148v4.344h4.344
			v-4.344H1070.772z M844.884,1141.284v4.344h4.344v-4.344H844.884z M1070.772,1149.836v4.344h4.344v-4.344H1070.772z
			 M844.884,1149.972v4.344h4.344v-4.344H844.884z M936.304,1152.152h47.394c7.194,0,13.287,4.245,16.019,10.376l0.44,1.222
			c0.34,0.941,0.606,1.892,0.798,2.868c0.178,1.01,0.313,2.049,0.314,3.114v56.269v4.344h-15.204v-52.128h-4.345v52.128H938.28
			v-52.128h-4.344v52.128h-15.204v-60.613c0-1.064,0.136-2.095,0.313-3.105c0.191-0.976,0.458-1.927,0.798-2.868l0.44-1.222
			c2.731-6.131,8.824-10.376,16.02-10.376V1152.152z M1070.772,1158.524v4.344h4.344v-4.344H1070.772z M844.884,1158.66v4.344h4.344
			v-4.344H844.884z M882.402,1165.167v0.017h32.47c-0.31,1.462-0.482,2.976-0.484,4.53v51.925h-32.58v-34.752h-4.344v34.752h-8.688
			v-42.846C868.776,1171.209,874.816,1165.167,882.402,1165.167z M1005.128,1165.184h32.471c7.585,0,13.625,6.042,13.625,13.625
			v42.846h-8.688v-34.752h-4.344v34.752h-32.58v-51.933c-0.002-1.554-0.175-3.068-0.484-4.531V1165.184z M1070.772,1167.212v4.344
			h4.344v-4.344H1070.772z M844.884,1167.348v4.344h4.344v-4.344H844.884z M1070.772,1175.9v4.344h4.344v-4.344H1070.772z
			 M844.884,1176.036v4.344h4.344v-4.344H844.884z M1070.772,1184.588v4.344h4.344v-4.344H1070.772z M844.884,1184.724v4.344h4.344
			v-4.344H844.884z M1070.772,1193.276v4.344h4.344v-4.344H1070.772z M844.884,1193.412v4.344h4.344v-4.344H844.884z
			 M1070.772,1201.964v4.344h4.344v-4.344H1070.772z M844.884,1202.091v4.344h4.344v-4.344H844.884z M1070.772,1210.643v4.344h4.344
			v-4.344H1070.772z M844.884,1210.771v4.344h4.344v-4.344H844.884z M1070.772,1219.323v2.63c-1.627,0.426-3.062,1.31-4.175,2.512
			l-3.419-1.816l-2.045,3.835l3.394,1.799c-0.162,0.661-0.271,1.346-0.271,2.054c0,0.883,0.176,1.715,0.425,2.521l-2.283,1.408
			l2.274,3.699l2.266-1.393c1.564,1.508,3.681,2.453,6.007,2.453c4.772,0,8.688-3.916,8.688-8.688c0-4.02-2.788-7.406-6.516-8.383
			v-2.63H1070.772z M844.884,1219.459v2.494c-3.728,0.977-6.516,4.363-6.516,8.383c0,4.772,3.915,8.688,8.688,8.688
			c2.98,0,5.628-1.526,7.195-3.836l-0.95,1.536l3.699,2.282l2.273-3.699l-3.699-2.282l-1.315,2.138
			c0.934-1.384,1.485-3.044,1.485-4.827c0-4.02-2.788-7.406-6.517-8.383v-2.494H844.884z M857.585,1221.834l-3.732,2.223
			l2.223,3.732l3.732-2.223L857.585,1221.834z M847.056,1225.991c2.426,0,4.345,1.92,4.345,4.345s-1.919,4.344-4.345,4.344
			c-2.425,0-4.344-1.919-4.344-4.344S844.631,1225.991,847.056,1225.991z M1072.944,1225.991c2.425,0,4.344,1.92,4.344,4.345
			s-1.919,4.344-4.344,4.344s-4.344-1.919-4.344-4.344S1070.52,1225.991,1072.944,1225.991z M1058.698,1236.538l-3.699,2.273
			l2.274,3.708l3.699-2.282L1058.698,1236.538z M862.973,1237.581l-2.273,3.699l3.699,2.274l2.273-3.699L862.973,1237.581z
			 M1051.301,1241.095l-3.708,2.273l2.282,3.699l3.699-2.273L1051.301,1241.095z M870.371,1242.138l-2.273,3.699l3.699,2.273
			l2.273-3.699L870.371,1242.138z M957.828,1243.368v4.344h4.344v-4.344H957.828z M1043.894,1245.65l-3.699,2.273l2.282,3.699
			l3.699-2.273L1043.894,1245.65z M877.778,1246.684l-2.283,3.699l3.699,2.283l2.283-3.699L877.778,1246.684z M1036.495,1250.198
			l-3.699,2.282l2.282,3.699l3.699-2.282L1036.495,1250.198z M885.177,1251.241l-2.283,3.699l3.699,2.274l2.283-3.699
			L885.177,1251.241z M957.828,1252.056v4.344h4.344v-4.344H957.828z M1029.097,1254.754l-3.699,2.273l2.282,3.699l3.699-2.273
			L1029.097,1254.754z M892.575,1255.798l-2.283,3.699l3.699,2.273l2.283-3.699L892.575,1255.798z M1021.698,1259.309l-3.699,2.274
			l2.274,3.699l3.698-2.274L1021.698,1259.309z M899.974,1260.345l-2.283,3.699l3.708,2.282l2.273-3.699L899.974,1260.345z
			 M957.828,1260.744v4.344h4.344v-4.344H957.828z M1014.3,1263.875l-3.699,2.265l2.274,3.699l3.699-2.282L1014.3,1263.875z
			 M907.371,1264.901l-2.273,3.699l3.699,2.273l2.273-3.699L907.371,1264.901z M1006.901,1268.414l-3.699,2.273l2.274,3.699
			l3.699-2.273L1006.901,1268.414z M957.828,1269.432v4.345h4.344v-4.345H957.828z M914.77,1269.482l-2.273,3.691l3.699,2.282
			l2.273-3.708L914.77,1269.482z M999.503,1272.995l-3.699,2.266l2.274,3.708l3.699-2.283L999.503,1272.995z M922.168,1274.021
			l-2.273,3.699l3.699,2.282l2.273-3.698L922.168,1274.021z M992.104,1277.534l-3.699,2.282l2.274,3.708l3.699-2.291
			L992.104,1277.534z M957.828,1278.137v4.344h4.344v-4.344H957.828z M929.566,1278.587l-2.273,3.69l3.699,2.282l2.273-3.708
			L929.566,1278.587z M984.706,1282.099l-3.699,2.266l2.274,3.708l3.699-2.282L984.706,1282.099z M936.965,1283.134l-2.273,3.708
			l3.699,2.266l2.273-3.699L936.965,1283.134z M977.308,1286.646l-3.698,2.274l2.273,3.699l3.699-2.274L977.308,1286.646z
			 M957.828,1286.825v4.344H960h2.172v-4.344H957.828z M960,1291.169c-2.324,0-4.435,0.939-5.998,2.443l-2.24-1.374l-2.273,3.707
			l2.248,1.375c-0.25,0.807-0.425,1.651-0.425,2.536c0,4.773,3.916,8.688,8.688,8.688s8.688-3.915,8.688-8.688
			c0-1.501-0.424-2.896-1.104-4.132l0.899,1.451l3.699-2.282l-2.282-3.69l-3.699,2.282l0.798,1.281
			C965.415,1292.597,962.872,1291.169,960,1291.169z M944.363,1287.69l-2.273,3.69l3.699,2.282l2.273-3.69L944.363,1287.69z
			 M960,1295.513c2.425,0,4.344,1.919,4.344,4.344s-1.919,4.345-4.344,4.345s-4.344-1.92-4.344-4.345S957.575,1295.513,960,1295.513
			z"/>
	</g>
</g>
</svg>
